<?xml version="1.0" encoding="utf-8"?>
<!-- Svg Vector Icons : http://www.onlinewebfonts.com/icon -->
<!DOCTYPE svg PUBLIC "-//W3C//DTD SVG 1.1//EN" "http://www.w3.org/Graphics/SVG/1.1/DTD/svg11.dtd">
<svg version="1.1" xmlns="http://www.w3.org/2000/svg" xmlns:xlink="http://www.w3.org/1999/xlink" x="0px" y="0px" viewBox="0 0 1000 1000" style="fill: white" enable-background="new 0 0 1000 1000" xml:space="preserve">
<metadata> Svg Vector Icons : http://www.onlinewebfonts.com/icon </metadata>
<g><path d="M500,990C229.8,990,10,770.2,10,500S229.8,10,500,10c270.2,0,490,219.8,490,490S770.2,990,500,990z M500,43.6C248.3,43.6,43.6,248.3,43.6,500S248.3,956.4,500,956.4c251.6,0,456.4-204.8,456.4-456.4S751.7,43.6,500,43.6z"/><path d="M768.9,773.3H214.5c-9.3,0-16.8-7.5-16.8-16.8v-39.9c0-111.3,68.9-213.8,173.8-262.2c-21.6-27.9-32.9-64.3-32.9-106.8c0-92.7,75-168.1,167.2-168.1c91.7,0,166.2,75.4,166.2,168.1c0,38.6-15.5,77.1-43.2,108.5c96.1,47.1,156.9,146.6,156.9,260.4v39.9C785.7,765.8,778.2,773.3,768.9,773.3z M231.3,739.7h520.8v-23.1c0-110.4-60.8-202-158.7-239.2c-5.5-2.1-9.5-6.9-10.6-12.8c-1-5.8,1.1-11.7,5.5-15.6c31.8-27.7,50-64.7,50-101.4c0-75.4-58.3-134.5-132.6-134.5c-73.7,0-133.6,60.4-133.6,134.5c0,30,6.8,71.7,39.2,100.5c4.4,3.9,6.4,9.9,5.3,15.7c-1.1,5.8-5.2,10.6-10.7,12.6c-104.5,38.5-174.7,135-174.7,240.1V739.7z"/></g>
</svg>